# xmcd
# 
# Track frame offsets:
#     150
#     15709
#     31654
#     49049
#     71472
#     94998
#     114141
#     136238
#     154781
#     174628
# 
# Disc length: 2548
# 
# Revision: 1
# Processed by: cddbd v1.5.2PL0 Copyright (c) Steve Scherf et al.
# Submitted via: fre:ac v1.0.27
# 
DISCID=7509f20a
DTITLE=John-Alex Mason - Jook Joint Thunderclap
DYEAR=2011
DGENRE=Blues
TTITLE0=My Old Lonesome Home
TTITLE1=Gone So Long (feat. Cody Burnside)
TTITLE2=More Than Wind
TTITLE3=Riding On (feat. Cody Burnside)
TTITLE4=Rolled and Tumbled
TTITLE5=Diamond Rain
TTITLE6=Signifyin' Monkey
TTITLE7=Free
TTITLE8=Write Me A Few Of Your Lines
TTITLE9=Whisper
EXTD=
EXTT0=
EXTT1=
EXTT2=
EXTT3=
EXTT4=
EXTT5=
EXTT6=
EXTT7=
EXTT8=
EXTT9=
PLAYORDER=
